<svg id="Layer_1" data-name="Layer 1" xmlns="http://www.w3.org/2000/svg" viewBox="0 0 240.59 261.77"><defs><style>.cls-1{fill:#7c0418;}.cls-2{fill:#ec1d42;}.cls-3{fill:#001b34;}.cls-4{fill:#002a53;}</style></defs><path class="cls-1" d="M217.11,105.59h-4.62A85.57,85.57,0,0,0,127,191.07v90.11h90.1A85.58,85.58,0,0,0,302.6,195.7v-4.63A85.58,85.58,0,0,0,217.11,105.59Zm56,85.48v4.63a56.08,56.08,0,0,1-56,56H156.47V191.07a56.08,56.08,0,0,1,56-56h4.62A56.08,56.08,0,0,1,273.13,191.07Z" transform="translate(-127.01 -87.59)"/><path class="cls-1" d="M217.11,105.59h-4.62A85.57,85.57,0,0,0,127,191.07v1.76h29.46v-1.76a56.08,56.08,0,0,1,56-56h4.62a56.08,56.08,0,0,1,56,56v4.63a56.08,56.08,0,0,1-56,56h-6.38v29.47h6.38A85.58,85.58,0,0,0,302.6,195.7v-4.63A85.58,85.58,0,0,0,217.11,105.59Z" transform="translate(-127.01 -87.59)"/><path class="cls-2" d="M234.11,87.59h-4.62A85.57,85.57,0,0,0,144,173.07v90.11h90.1A85.58,85.58,0,0,0,319.6,177.7v-4.63A85.58,85.58,0,0,0,234.11,87.59Zm56,85.48v4.63a56.08,56.08,0,0,1-56,56H173.47V173.07a56.08,56.08,0,0,1,56-56h4.62A56.08,56.08,0,0,1,290.13,173.07Z" transform="translate(-127.01 -87.59)"/><path class="cls-3" d="M291,207.27a56,56,0,0,1,18,11.67A48.27,48.27,0,0,0,291,207.27Zm27.84-18.22a92.58,92.58,0,0,1-5,19.07A80.2,80.2,0,0,1,309,218.94a55.83,55.83,0,0,1,17.17,40.31v4.63a56,56,0,0,1-28.69,48.88h0a55.66,55.66,0,0,1-27.32,7.13h-4.63a56.07,56.07,0,0,1-56-56V203.24h60.64c.84,0,1.67,0,2.5.06v-.06h0l0-.14a41.8,41.8,0,0,0,.69-4.86c.79-9.43-1.43-18.9-3.12-24.47H180v90.11a85.57,85.57,0,0,0,85.47,85.48h4.63a85.53,85.53,0,0,0,85.48-85.48v-4.63A85.41,85.41,0,0,0,318.82,189.05Z" transform="translate(-127.01 -87.59)"/><path class="cls-4" d="M304.23,171.68a87.67,87.67,0,0,1,15.37,6,73.4,73.4,0,0,1-.78,11.35,92.58,92.58,0,0,1-5,19.07,56,56,0,0,1,24.28,46.13v4.63a56.11,56.11,0,0,1-40.69,53.88h0a55.74,55.74,0,0,1-15.32,2.13h-4.63a56.07,56.07,0,0,1-56-56V198.24h51.86c.79-9.43-1.43-18.9-3.12-24.47-.94-3.11-1.72-5-1.72-5H192v90.11a85.57,85.57,0,0,0,85.47,85.48h4.63a85.48,85.48,0,0,0,85.48-85.48v-4.63A85.61,85.61,0,0,0,304.23,171.68Z" transform="translate(-127.01 -87.59)"/><path class="cls-2" d="M234.11,87.59h-4.62A85.57,85.57,0,0,0,144,173.07v1.76h29.46v-1.76a56.08,56.08,0,0,1,56-56h4.62a56.08,56.08,0,0,1,56,56v4.63a56.08,56.08,0,0,1-56,56h-6.38v29.47h6.38A85.58,85.58,0,0,0,319.6,177.7v-4.63A85.58,85.58,0,0,0,234.11,87.59Z" transform="translate(-127.01 -87.59)"/><path class="cls-2" d="M304.23,171.68A83.69,83.69,0,0,0,290,169.13,64,64,0,0,1,304.23,171.68Z" transform="translate(-127.01 -87.59)"/><polygon class="cls-3" points="53.01 86.18 65.01 81.18 65.01 123.8 53.01 123.8 53.01 86.18"/></svg>